<svg xmlns="http://www.w3.org/2000/svg" xmlns:xlink="http://www.w3.org/1999/xlink" width="600" height="400" viewBox="0 0 2400 1600">
<defs>
  <clipPath id="clip510">
    <rect x="0" y="0" width="2400" height="1600"></rect>
  </clipPath>
</defs>
<path clip-path="url(#clip510)" d="M0 1600 L2400 1600 L2400 0 L0 0  Z" fill="#282a36" fill-rule="evenodd" fill-opacity="1"></path>
<defs>
  <clipPath id="clip511">
    <rect x="480" y="0" width="1681" height="1600"></rect>
  </clipPath>
</defs>
<path clip-path="url(#clip510)" d="M230.072 1423.18 L2352.76 1423.18 L2352.76 123.472 L230.072 123.472  Z" fill="#30343b" fill-rule="evenodd" fill-opacity="1"></path>
<defs>
  <clipPath id="clip512">
    <rect x="230" y="123" width="2124" height="1301"></rect>
  </clipPath>
</defs>
<polyline clip-path="url(#clip512)" style="stroke:#f8f8f2; stroke-linecap:round; stroke-linejoin:round; stroke-width:2; stroke-opacity:0.1; fill:none" points="290.148,1423.18 290.148,123.472 "></polyline>
<polyline clip-path="url(#clip512)" style="stroke:#f8f8f2; stroke-linecap:round; stroke-linejoin:round; stroke-width:2; stroke-opacity:0.1; fill:none" points="862.3,1423.18 862.3,123.472 "></polyline>
<polyline clip-path="url(#clip512)" style="stroke:#f8f8f2; stroke-linecap:round; stroke-linejoin:round; stroke-width:2; stroke-opacity:0.1; fill:none" points="1434.45,1423.18 1434.45,123.472 "></polyline>
<polyline clip-path="url(#clip512)" style="stroke:#f8f8f2; stroke-linecap:round; stroke-linejoin:round; stroke-width:2; stroke-opacity:0.1; fill:none" points="2006.6,1423.18 2006.6,123.472 "></polyline>
<polyline clip-path="url(#clip512)" style="stroke:#f8f8f2; stroke-linecap:round; stroke-linejoin:round; stroke-width:2; stroke-opacity:0.1; fill:none" points="230.072,1423.18 2352.76,1423.18 "></polyline>
<polyline clip-path="url(#clip512)" style="stroke:#f8f8f2; stroke-linecap:round; stroke-linejoin:round; stroke-width:2; stroke-opacity:0.1; fill:none" points="230.072,1163.24 2352.76,1163.24 "></polyline>
<polyline clip-path="url(#clip512)" style="stroke:#f8f8f2; stroke-linecap:round; stroke-linejoin:round; stroke-width:2; stroke-opacity:0.1; fill:none" points="230.072,903.297 2352.76,903.297 "></polyline>
<polyline clip-path="url(#clip512)" style="stroke:#f8f8f2; stroke-linecap:round; stroke-linejoin:round; stroke-width:2; stroke-opacity:0.1; fill:none" points="230.072,643.355 2352.76,643.355 "></polyline>
<polyline clip-path="url(#clip512)" style="stroke:#f8f8f2; stroke-linecap:round; stroke-linejoin:round; stroke-width:2; stroke-opacity:0.1; fill:none" points="230.072,383.414 2352.76,383.414 "></polyline>
<polyline clip-path="url(#clip512)" style="stroke:#f8f8f2; stroke-linecap:round; stroke-linejoin:round; stroke-width:2; stroke-opacity:0.1; fill:none" points="230.072,123.472 2352.76,123.472 "></polyline>
<polyline clip-path="url(#clip510)" style="stroke:#f8f8f2; stroke-linecap:round; stroke-linejoin:round; stroke-width:4; stroke-opacity:1; fill:none" points="230.072,1423.18 2352.76,1423.18 "></polyline>
<polyline clip-path="url(#clip510)" style="stroke:#f8f8f2; stroke-linecap:round; stroke-linejoin:round; stroke-width:4; stroke-opacity:1; fill:none" points="290.148,1423.18 290.148,1404.28 "></polyline>
<polyline clip-path="url(#clip510)" style="stroke:#f8f8f2; stroke-linecap:round; stroke-linejoin:round; stroke-width:4; stroke-opacity:1; fill:none" points="862.3,1423.18 862.3,1404.28 "></polyline>
<polyline clip-path="url(#clip510)" style="stroke:#f8f8f2; stroke-linecap:round; stroke-linejoin:round; stroke-width:4; stroke-opacity:1; fill:none" points="1434.45,1423.18 1434.45,1404.28 "></polyline>
<polyline clip-path="url(#clip510)" style="stroke:#f8f8f2; stroke-linecap:round; stroke-linejoin:round; stroke-width:4; stroke-opacity:1; fill:none" points="2006.6,1423.18 2006.6,1404.28 "></polyline>
<path clip-path="url(#clip510)" d="M260.09 1468.75 L289.766 1468.75 L289.766 1472.69 L260.09 1472.69 L260.09 1468.75 Z" fill="#f8f8f2" fill-rule="nonzero" fill-opacity="1"></path><path clip-path="url(#clip510)" d="M303.886 1481.64 L320.205 1481.64 L320.205 1485.58 L298.261 1485.58 L298.261 1481.64 Q300.923 1478.89 305.506 1474.26 Q310.113 1469.61 311.293 1468.27 Q313.539 1465.74 314.418 1464.01 Q315.321 1462.25 315.321 1460.56 Q315.321 1457.8 313.377 1456.07 Q311.456 1454.33 308.354 1454.33 Q306.155 1454.33 303.701 1455.09 Q301.27 1455.86 298.493 1457.41 L298.493 1452.69 Q301.317 1451.55 303.77 1450.97 Q306.224 1450.39 308.261 1450.39 Q313.631 1450.39 316.826 1453.08 Q320.02 1455.77 320.02 1460.26 Q320.02 1462.39 319.21 1464.31 Q318.423 1466.2 316.317 1468.8 Q315.738 1469.47 312.636 1472.69 Q309.534 1475.88 303.886 1481.64 Z" fill="#f8f8f2" fill-rule="nonzero" fill-opacity="1"></path><path clip-path="url(#clip510)" d="M862.3 1454.1 Q858.689 1454.1 856.86 1457.66 Q855.054 1461.2 855.054 1468.33 Q855.054 1475.44 856.86 1479.01 Q858.689 1482.55 862.3 1482.55 Q865.934 1482.55 867.74 1479.01 Q869.568 1475.44 869.568 1468.33 Q869.568 1461.2 867.74 1457.66 Q865.934 1454.1 862.3 1454.1 M862.3 1450.39 Q868.11 1450.39 871.165 1455 Q874.244 1459.58 874.244 1468.33 Q874.244 1477.06 871.165 1481.67 Q868.11 1486.25 862.3 1486.25 Q856.49 1486.25 853.411 1481.67 Q850.355 1477.06 850.355 1468.33 Q850.355 1459.58 853.411 1455 Q856.49 1450.39 862.3 1450.39 Z" fill="#f8f8f2" fill-rule="nonzero" fill-opacity="1"></path><path clip-path="url(#clip510)" d="M1429.1 1481.64 L1445.42 1481.64 L1445.42 1485.58 L1423.48 1485.58 L1423.48 1481.64 Q1426.14 1478.89 1430.73 1474.26 Q1435.33 1469.61 1436.51 1468.27 Q1438.76 1465.74 1439.64 1464.01 Q1440.54 1462.25 1440.54 1460.56 Q1440.54 1457.8 1438.6 1456.07 Q1436.67 1454.33 1433.57 1454.33 Q1431.37 1454.33 1428.92 1455.09 Q1426.49 1455.86 1423.71 1457.41 L1423.71 1452.69 Q1426.54 1451.55 1428.99 1450.97 Q1431.44 1450.39 1433.48 1450.39 Q1438.85 1450.39 1442.04 1453.08 Q1445.24 1455.77 1445.24 1460.26 Q1445.24 1462.39 1444.43 1464.31 Q1443.64 1466.2 1441.54 1468.8 Q1440.96 1469.47 1437.85 1472.69 Q1434.75 1475.88 1429.1 1481.64 Z" fill="#f8f8f2" fill-rule="nonzero" fill-opacity="1"></path><path clip-path="url(#clip510)" d="M2009.61 1455.09 L1997.81 1473.54 L2009.61 1473.54 L2009.61 1455.09 M2008.39 1451.02 L2014.27 1451.02 L2014.27 1473.54 L2019.2 1473.54 L2019.2 1477.43 L2014.27 1477.43 L2014.27 1485.58 L2009.61 1485.58 L2009.61 1477.43 L1994.01 1477.43 L1994.01 1472.92 L2008.39 1451.02 Z" fill="#f8f8f2" fill-rule="nonzero" fill-opacity="1"></path><path clip-path="url(#clip510)" d="M1305.59 1528.8 Q1305.59 1530.61 1304.46 1531.64 Q1303.33 1532.64 1302.04 1532.64 Q1300.82 1532.64 1300.18 1531.93 Q1299.53 1531.22 1299.53 1530.32 Q1299.53 1529.09 1300.43 1528.03 Q1301.34 1526.97 1302.69 1526.74 Q1301.37 1525.91 1299.4 1525.91 Q1298.12 1525.91 1296.99 1526.58 Q1295.89 1527.26 1295.22 1528.13 Q1294.57 1529 1293.99 1530.25 Q1293.45 1531.48 1293.22 1532.22 Q1293.03 1532.93 1292.87 1533.7 L1290.61 1542.72 Q1289.52 1547 1289.52 1548.51 Q1289.52 1550.38 1290.42 1551.64 Q1291.32 1552.86 1293.12 1552.86 Q1293.83 1552.86 1294.64 1552.67 Q1295.44 1552.44 1296.47 1551.86 Q1297.54 1551.25 1298.47 1550.35 Q1299.44 1549.42 1300.37 1547.84 Q1301.3 1546.26 1301.92 1544.23 Q1302.11 1543.52 1302.75 1543.52 Q1303.56 1543.52 1303.56 1544.17 Q1303.56 1544.71 1303.11 1545.87 Q1302.69 1547 1301.75 1548.48 Q1300.85 1549.93 1299.66 1551.25 Q1298.47 1552.54 1296.7 1553.44 Q1294.93 1554.34 1292.99 1554.34 Q1290.23 1554.34 1288.39 1552.86 Q1286.55 1551.38 1285.88 1549.32 Q1285.72 1549.61 1285.49 1550 Q1285.27 1550.38 1284.59 1551.25 Q1283.94 1552.09 1283.2 1552.73 Q1282.46 1553.34 1281.3 1553.83 Q1280.18 1554.34 1278.95 1554.34 Q1277.41 1554.34 1276.02 1553.89 Q1274.67 1553.44 1273.7 1552.41 Q1272.74 1551.38 1272.74 1549.96 Q1272.74 1548.38 1273.8 1547.29 Q1274.9 1546.16 1276.38 1546.16 Q1277.31 1546.16 1278.05 1546.71 Q1278.82 1547.26 1278.82 1548.45 Q1278.82 1549.77 1277.92 1550.77 Q1277.02 1551.77 1275.73 1552.02 Q1277.05 1552.86 1279.02 1552.86 Q1281.14 1552.86 1282.82 1550.99 Q1284.49 1549.13 1285.3 1546 Q1287.29 1538.5 1288.07 1535.15 Q1288.84 1531.77 1288.84 1530.32 Q1288.84 1528.96 1288.49 1528.03 Q1288.13 1527.1 1287.52 1526.68 Q1286.94 1526.23 1286.39 1526.07 Q1285.88 1525.91 1285.3 1525.91 Q1284.33 1525.91 1283.24 1526.29 Q1282.17 1526.68 1280.89 1527.58 Q1279.63 1528.45 1278.44 1530.25 Q1277.25 1532.06 1276.44 1534.54 Q1276.28 1535.28 1275.57 1535.28 Q1274.8 1535.24 1274.8 1534.6 Q1274.8 1534.05 1275.22 1532.93 Q1275.67 1531.77 1276.57 1530.32 Q1277.5 1528.87 1278.7 1527.58 Q1279.92 1526.26 1281.69 1525.36 Q1283.49 1524.46 1285.43 1524.46 Q1286.3 1524.46 1287.13 1524.65 Q1288 1524.81 1289.03 1525.29 Q1290.1 1525.78 1291.03 1526.84 Q1291.96 1527.9 1292.54 1529.45 Q1292.93 1528.71 1293.45 1528 Q1293.99 1527.29 1294.83 1526.42 Q1295.7 1525.52 1296.89 1525 Q1298.12 1524.46 1299.47 1524.46 Q1300.79 1524.46 1302.08 1524.81 Q1303.37 1525.13 1304.46 1526.19 Q1305.59 1527.23 1305.59 1528.8 Z" fill="#f8f8f2" fill-rule="nonzero" fill-opacity="1"></path><polyline clip-path="url(#clip510)" style="stroke:#f8f8f2; stroke-linecap:round; stroke-linejoin:round; stroke-width:4; stroke-opacity:1; fill:none" points="230.072,1423.18 230.072,123.472 "></polyline>
<polyline clip-path="url(#clip510)" style="stroke:#f8f8f2; stroke-linecap:round; stroke-linejoin:round; stroke-width:4; stroke-opacity:1; fill:none" points="230.072,1423.18 248.969,1423.18 "></polyline>
<polyline clip-path="url(#clip510)" style="stroke:#f8f8f2; stroke-linecap:round; stroke-linejoin:round; stroke-width:4; stroke-opacity:1; fill:none" points="230.072,1163.24 248.969,1163.24 "></polyline>
<polyline clip-path="url(#clip510)" style="stroke:#f8f8f2; stroke-linecap:round; stroke-linejoin:round; stroke-width:4; stroke-opacity:1; fill:none" points="230.072,903.297 248.969,903.297 "></polyline>
<polyline clip-path="url(#clip510)" style="stroke:#f8f8f2; stroke-linecap:round; stroke-linejoin:round; stroke-width:4; stroke-opacity:1; fill:none" points="230.072,643.355 248.969,643.355 "></polyline>
<polyline clip-path="url(#clip510)" style="stroke:#f8f8f2; stroke-linecap:round; stroke-linejoin:round; stroke-width:4; stroke-opacity:1; fill:none" points="230.072,383.414 248.969,383.414 "></polyline>
<polyline clip-path="url(#clip510)" style="stroke:#f8f8f2; stroke-linecap:round; stroke-linejoin:round; stroke-width:4; stroke-opacity:1; fill:none" points="230.072,123.472 248.969,123.472 "></polyline>
<path clip-path="url(#clip510)" d="M136.896 1408.98 Q133.285 1408.98 131.456 1412.54 Q129.651 1416.08 129.651 1423.21 Q129.651 1430.32 131.456 1433.89 Q133.285 1437.43 136.896 1437.43 Q140.53 1437.43 142.336 1433.89 Q144.165 1430.32 144.165 1423.21 Q144.165 1416.08 142.336 1412.54 Q140.53 1408.98 136.896 1408.98 M136.896 1405.27 Q142.706 1405.27 145.762 1409.88 Q148.841 1414.46 148.841 1423.21 Q148.841 1431.94 145.762 1436.55 Q142.706 1441.13 136.896 1441.13 Q131.086 1441.13 128.007 1436.55 Q124.952 1431.94 124.952 1423.21 Q124.952 1414.46 128.007 1409.88 Q131.086 1405.27 136.896 1405.27 Z" fill="#f8f8f2" fill-rule="nonzero" fill-opacity="1"></path><path clip-path="url(#clip510)" d="M157.058 1434.58 L161.942 1434.58 L161.942 1440.46 L157.058 1440.46 L157.058 1434.58 Z" fill="#f8f8f2" fill-rule="nonzero" fill-opacity="1"></path><path clip-path="url(#clip510)" d="M182.127 1408.98 Q178.516 1408.98 176.688 1412.54 Q174.882 1416.08 174.882 1423.21 Q174.882 1430.32 176.688 1433.89 Q178.516 1437.43 182.127 1437.43 Q185.762 1437.43 187.567 1433.89 Q189.396 1430.32 189.396 1423.21 Q189.396 1416.08 187.567 1412.54 Q185.762 1408.98 182.127 1408.98 M182.127 1405.27 Q187.938 1405.27 190.993 1409.88 Q194.072 1414.46 194.072 1423.21 Q194.072 1431.94 190.993 1436.55 Q187.938 1441.13 182.127 1441.13 Q176.317 1441.13 173.239 1436.55 Q170.183 1431.94 170.183 1423.21 Q170.183 1414.46 173.239 1409.88 Q176.317 1405.27 182.127 1405.27 Z" fill="#f8f8f2" fill-rule="nonzero" fill-opacity="1"></path><path clip-path="url(#clip510)" d="M138.493 1149.04 Q134.882 1149.04 133.054 1152.6 Q131.248 1156.14 131.248 1163.27 Q131.248 1170.38 133.054 1173.94 Q134.882 1177.49 138.493 1177.49 Q142.128 1177.49 143.933 1173.94 Q145.762 1170.38 145.762 1163.27 Q145.762 1156.14 143.933 1152.6 Q142.128 1149.04 138.493 1149.04 M138.493 1145.33 Q144.304 1145.33 147.359 1149.94 Q150.438 1154.52 150.438 1163.27 Q150.438 1172 147.359 1176.61 Q144.304 1181.19 138.493 1181.19 Q132.683 1181.19 129.605 1176.61 Q126.549 1172 126.549 1163.27 Q126.549 1154.52 129.605 1149.94 Q132.683 1145.33 138.493 1145.33 Z" fill="#f8f8f2" fill-rule="nonzero" fill-opacity="1"></path><path clip-path="url(#clip510)" d="M158.655 1174.64 L163.54 1174.64 L163.54 1180.52 L158.655 1180.52 L158.655 1174.64 Z" fill="#f8f8f2" fill-rule="nonzero" fill-opacity="1"></path><path clip-path="url(#clip510)" d="M177.752 1176.58 L194.072 1176.58 L194.072 1180.52 L172.127 1180.52 L172.127 1176.58 Q174.789 1173.83 179.373 1169.2 Q183.979 1164.55 185.16 1163.2 Q187.405 1160.68 188.285 1158.94 Q189.188 1157.19 189.188 1155.5 Q189.188 1152.74 187.243 1151 Q185.322 1149.27 182.22 1149.27 Q180.021 1149.27 177.567 1150.03 Q175.137 1150.8 172.359 1152.35 L172.359 1147.62 Q175.183 1146.49 177.637 1145.91 Q180.09 1145.33 182.127 1145.33 Q187.498 1145.33 190.692 1148.02 Q193.887 1150.7 193.887 1155.19 Q193.887 1157.32 193.076 1159.25 Q192.289 1161.14 190.183 1163.74 Q189.604 1164.41 186.502 1167.62 Q183.401 1170.82 177.752 1176.58 Z" fill="#f8f8f2" fill-rule="nonzero" fill-opacity="1"></path><path clip-path="url(#clip510)" d="M136.41 889.095 Q132.799 889.095 130.97 892.66 Q129.165 896.202 129.165 903.331 Q129.165 910.438 130.97 914.003 Q132.799 917.544 136.41 917.544 Q140.044 917.544 141.85 914.003 Q143.679 910.438 143.679 903.331 Q143.679 896.202 141.85 892.66 Q140.044 889.095 136.41 889.095 M136.41 885.392 Q142.22 885.392 145.276 889.998 Q148.354 894.582 148.354 903.331 Q148.354 912.058 145.276 916.665 Q142.22 921.248 136.41 921.248 Q130.6 921.248 127.521 916.665 Q124.466 912.058 124.466 903.331 Q124.466 894.582 127.521 889.998 Q130.6 885.392 136.41 885.392 Z" fill="#f8f8f2" fill-rule="nonzero" fill-opacity="1"></path><path clip-path="url(#clip510)" d="M156.572 914.697 L161.456 914.697 L161.456 920.577 L156.572 920.577 L156.572 914.697 Z" fill="#f8f8f2" fill-rule="nonzero" fill-opacity="1"></path><path clip-path="url(#clip510)" d="M184.489 890.091 L172.683 908.54 L184.489 908.54 L184.489 890.091 M183.262 886.017 L189.141 886.017 L189.141 908.54 L194.072 908.54 L194.072 912.429 L189.141 912.429 L189.141 920.577 L184.489 920.577 L184.489 912.429 L168.887 912.429 L168.887 907.915 L183.262 886.017 Z" fill="#f8f8f2" fill-rule="nonzero" fill-opacity="1"></path><path clip-path="url(#clip510)" d="M136.734 629.154 Q133.123 629.154 131.294 632.719 Q129.489 636.26 129.489 643.39 Q129.489 650.496 131.294 654.061 Q133.123 657.603 136.734 657.603 Q140.368 657.603 142.174 654.061 Q144.003 650.496 144.003 643.39 Q144.003 636.26 142.174 632.719 Q140.368 629.154 136.734 629.154 M136.734 625.45 Q142.544 625.45 145.6 630.057 Q148.679 634.64 148.679 643.39 Q148.679 652.117 145.6 656.723 Q142.544 661.307 136.734 661.307 Q130.924 661.307 127.845 656.723 Q124.79 652.117 124.79 643.39 Q124.79 634.64 127.845 630.057 Q130.924 625.45 136.734 625.45 Z" fill="#f8f8f2" fill-rule="nonzero" fill-opacity="1"></path><path clip-path="url(#clip510)" d="M156.896 654.756 L161.78 654.756 L161.78 660.635 L156.896 660.635 L156.896 654.756 Z" fill="#f8f8f2" fill-rule="nonzero" fill-opacity="1"></path><path clip-path="url(#clip510)" d="M182.544 641.492 Q179.396 641.492 177.544 643.645 Q175.715 645.797 175.715 649.547 Q175.715 653.274 177.544 655.45 Q179.396 657.603 182.544 657.603 Q185.692 657.603 187.521 655.45 Q189.373 653.274 189.373 649.547 Q189.373 645.797 187.521 643.645 Q185.692 641.492 182.544 641.492 M191.826 626.839 L191.826 631.098 Q190.067 630.265 188.262 629.825 Q186.479 629.385 184.72 629.385 Q180.09 629.385 177.637 632.51 Q175.206 635.635 174.859 641.955 Q176.225 639.941 178.285 638.876 Q180.345 637.788 182.822 637.788 Q188.03 637.788 191.039 640.959 Q194.072 644.108 194.072 649.547 Q194.072 654.871 190.924 658.089 Q187.776 661.307 182.544 661.307 Q176.549 661.307 173.377 656.723 Q170.206 652.117 170.206 643.39 Q170.206 635.196 174.095 630.334 Q177.984 625.45 184.535 625.45 Q186.294 625.45 188.076 625.797 Q189.882 626.145 191.826 626.839 Z" fill="#f8f8f2" fill-rule="nonzero" fill-opacity="1"></path><path clip-path="url(#clip510)" d="M136.989 369.212 Q133.378 369.212 131.549 372.777 Q129.743 376.319 129.743 383.448 Q129.743 390.555 131.549 394.12 Q133.378 397.661 136.989 397.661 Q140.623 397.661 142.429 394.12 Q144.257 390.555 144.257 383.448 Q144.257 376.319 142.429 372.777 Q140.623 369.212 136.989 369.212 M136.989 365.509 Q142.799 365.509 145.854 370.115 Q148.933 374.698 148.933 383.448 Q148.933 392.175 145.854 396.782 Q142.799 401.365 136.989 401.365 Q131.179 401.365 128.1 396.782 Q125.044 392.175 125.044 383.448 Q125.044 374.698 128.1 370.115 Q131.179 365.509 136.989 365.509 Z" fill="#f8f8f2" fill-rule="nonzero" fill-opacity="1"></path><path clip-path="url(#clip510)" d="M157.151 394.814 L162.035 394.814 L162.035 400.694 L157.151 400.694 L157.151 394.814 Z" fill="#f8f8f2" fill-rule="nonzero" fill-opacity="1"></path><path clip-path="url(#clip510)" d="M182.22 384.282 Q178.887 384.282 176.965 386.064 Q175.067 387.847 175.067 390.971 Q175.067 394.096 176.965 395.879 Q178.887 397.661 182.22 397.661 Q185.553 397.661 187.475 395.879 Q189.396 394.073 189.396 390.971 Q189.396 387.847 187.475 386.064 Q185.576 384.282 182.22 384.282 M177.544 382.291 Q174.535 381.55 172.845 379.49 Q171.178 377.43 171.178 374.467 Q171.178 370.323 174.118 367.916 Q177.081 365.509 182.22 365.509 Q187.382 365.509 190.322 367.916 Q193.262 370.323 193.262 374.467 Q193.262 377.43 191.572 379.49 Q189.905 381.55 186.919 382.291 Q190.299 383.078 192.174 385.37 Q194.072 387.661 194.072 390.971 Q194.072 395.995 190.993 398.68 Q187.938 401.365 182.22 401.365 Q176.502 401.365 173.424 398.68 Q170.368 395.995 170.368 390.971 Q170.368 387.661 172.266 385.37 Q174.164 383.078 177.544 382.291 M175.831 374.907 Q175.831 377.592 177.498 379.097 Q179.188 380.601 182.22 380.601 Q185.229 380.601 186.919 379.097 Q188.632 377.592 188.632 374.907 Q188.632 372.222 186.919 370.717 Q185.229 369.212 182.22 369.212 Q179.188 369.212 177.498 370.717 Q175.831 372.222 175.831 374.907 Z" fill="#f8f8f2" fill-rule="nonzero" fill-opacity="1"></path><path clip-path="url(#clip510)" d="M127.706 136.817 L135.345 136.817 L135.345 110.451 L127.035 112.118 L127.035 107.859 L135.299 106.192 L139.975 106.192 L139.975 136.817 L147.614 136.817 L147.614 140.752 L127.706 140.752 L127.706 136.817 Z" fill="#f8f8f2" fill-rule="nonzero" fill-opacity="1"></path><path clip-path="url(#clip510)" d="M157.058 134.873 L161.942 134.873 L161.942 140.752 L157.058 140.752 L157.058 134.873 Z" fill="#f8f8f2" fill-rule="nonzero" fill-opacity="1"></path><path clip-path="url(#clip510)" d="M182.127 109.271 Q178.516 109.271 176.688 112.836 Q174.882 116.377 174.882 123.507 Q174.882 130.613 176.688 134.178 Q178.516 137.72 182.127 137.72 Q185.762 137.72 187.567 134.178 Q189.396 130.613 189.396 123.507 Q189.396 116.377 187.567 112.836 Q185.762 109.271 182.127 109.271 M182.127 105.567 Q187.938 105.567 190.993 110.174 Q194.072 114.757 194.072 123.507 Q194.072 132.234 190.993 136.84 Q187.938 141.423 182.127 141.423 Q176.317 141.423 173.239 136.84 Q170.183 132.234 170.183 123.507 Q170.183 114.757 173.239 110.174 Q176.317 105.567 182.127 105.567 Z" fill="#f8f8f2" fill-rule="nonzero" fill-opacity="1"></path><path clip-path="url(#clip510)" d="M95.2568 890.322 L33.8402 890.322 Q31.3926 890.322 31.3926 889.002 Q31.3926 887.681 33.3571 887.681 L94.7737 887.681 Q97.2214 887.681 97.2214 889.002 Q97.2214 890.322 95.2568 890.322 Z" fill="#f8f8f2" fill-rule="nonzero" fill-opacity="1"></path><path clip-path="url(#clip510)" d="M56.2555 838.969 Q58.1879 838.969 61.5695 839.71 Q64.9511 840.418 66.5614 840.998 Q70.8448 842.608 74.4518 845.829 Q76.4486 847.6 77.8979 849.533 Q79.3149 851.433 80.0234 852.85 Q80.6998 854.267 81.054 855.942 Q81.4405 857.616 81.4727 858.389 Q81.5371 859.162 81.5371 860.257 L91.3599 862.769 Q93.9042 863.285 94.0652 863.542 Q94.194 863.607 94.2584 863.768 Q94.3228 863.897 94.3228 864.025 L94.3228 864.154 Q94.3228 864.508 94.1618 864.702 Q94.0008 864.895 93.8075 864.927 L93.6465 864.927 Q93.1956 864.927 87.3986 863.413 Q84.4356 862.641 81.3761 861.964 Q81.054 867.117 78.7674 870.306 Q76.4808 873.462 72.0364 873.462 Q69.2989 873.462 60.8932 870.273 Q56.8674 868.76 55.1927 868.76 Q54.452 868.76 54.0011 868.921 Q53.518 869.082 53.357 869.404 Q53.1638 869.726 53.1315 869.919 Q53.0993 870.08 53.0993 870.402 Q53.0993 872.302 54.9995 874.074 Q56.8996 875.845 61.2796 877.069 Q62.0848 877.326 62.278 877.487 Q62.4712 877.648 62.4712 878.132 Q62.439 878.937 61.7949 878.937 Q61.5373 878.937 60.5389 878.647 Q59.5083 878.357 57.9946 877.681 Q56.4488 876.972 55.0639 876.006 Q53.6468 875.04 52.6485 873.526 Q51.6501 871.98 51.6501 870.209 Q51.6501 867.793 53.2282 866.312 Q54.774 864.798 57.0607 864.798 Q57.5115 864.798 58.0268 864.895 Q58.5421 864.992 58.832 865.088 Q59.1218 865.153 59.6693 865.346 Q60.1846 865.507 60.2812 865.539 Q64.5324 867.182 67.3021 868.019 Q70.0396 868.856 70.8448 868.985 Q71.6177 869.082 72.5517 869.082 Q79.0573 869.082 79.9268 861.578 L36.3523 850.628 Q35.4505 850.435 35.2573 850.273 Q35.0319 850.112 35.0319 849.629 Q35.0319 848.856 35.7404 848.856 Q35.9658 848.856 36.7388 849.05 L80.0556 859.935 Q80.0556 858.905 80.0234 858.261 Q79.9912 857.616 79.7014 856.264 Q79.3793 854.879 78.7996 853.719 Q78.2199 852.528 77.0605 850.853 Q75.8689 849.178 74.1942 847.536 Q72.1008 845.475 68.5904 843.639 Q65.0799 841.803 62.1814 841.803 Q58.9286 841.803 56.5776 844.154 Q56.2555 844.509 56.0623 844.702 Q55.869 844.863 55.547 845.024 Q55.2249 845.153 54.8063 845.153 Q53.7113 845.153 52.6807 844.122 Q51.6501 843.092 51.6501 841.868 Q51.6501 840.773 52.7129 839.871 Q53.7757 838.969 56.2555 838.969 Z" fill="#f8f8f2" fill-rule="nonzero" fill-opacity="1"></path><path clip-path="url(#clip510)" d="M64.307 828.232 Q53.1638 828.232 44.1783 824.077 Q40.4102 822.306 37.2541 819.826 Q34.0979 817.346 32.713 815.704 Q31.3282 814.061 31.3282 813.611 Q31.3282 812.966 31.9723 812.934 Q32.2944 812.934 33.0995 813.804 Q43.9207 824.432 64.307 824.399 Q84.7577 824.399 95.1602 814.061 Q96.2874 812.934 96.6417 812.934 Q97.2858 812.934 97.2858 813.611 Q97.2858 814.061 95.9653 815.64 Q94.6449 817.218 91.6176 819.665 Q88.5902 822.113 84.8865 823.884 Q75.9011 828.232 64.307 828.232 Z" fill="#f8f8f2" fill-rule="nonzero" fill-opacity="1"></path><path clip-path="url(#clip510)" d="M55.9979 775.071 Q57.8014 775.071 58.832 776.198 Q59.8304 777.325 59.8304 778.613 Q59.8304 779.837 59.1218 780.481 Q58.4133 781.125 57.5115 781.125 Q56.2877 781.125 55.2249 780.224 Q54.1621 779.322 53.9367 777.969 Q53.0993 779.29 53.0993 781.254 Q53.0993 782.542 53.7757 783.67 Q54.452 784.765 55.3215 785.441 Q56.1911 786.085 57.4471 786.665 Q58.671 787.212 59.4117 787.438 Q60.1202 787.631 60.8932 787.792 L69.9108 790.046 Q74.1942 791.141 75.7079 791.141 Q77.5758 791.141 78.8318 790.24 Q80.0556 789.338 80.0556 787.534 Q80.0556 786.826 79.8624 786.021 Q79.637 785.215 79.0573 784.185 Q78.4454 783.122 77.5436 782.188 Q76.6096 781.222 75.0315 780.288 Q73.4534 779.354 71.4245 778.742 Q70.7159 778.549 70.7159 777.905 Q70.7159 777.1 71.3601 777.1 Q71.9076 777.1 73.067 777.55 Q74.1942 777.969 75.6756 778.903 Q77.1249 779.805 78.4454 780.996 Q79.7336 782.188 80.6354 783.959 Q81.5371 785.731 81.5371 787.663 Q81.5371 790.433 80.0556 792.269 Q78.5742 794.104 76.513 794.781 Q76.8029 794.942 77.1893 795.167 Q77.5758 795.393 78.4454 796.069 Q79.2827 796.713 79.9268 797.454 Q80.5387 798.194 81.0218 799.354 Q81.5371 800.481 81.5371 801.705 Q81.5371 803.251 81.0862 804.636 Q80.6354 805.988 79.6048 806.954 Q78.5742 807.921 77.1571 807.921 Q75.579 807.921 74.484 806.858 Q73.3568 805.763 73.3568 804.281 Q73.3568 803.347 73.9043 802.607 Q74.4518 801.834 75.6434 801.834 Q76.9639 801.834 77.9623 802.735 Q78.9606 803.637 79.2183 804.925 Q80.0556 803.605 80.0556 801.64 Q80.0556 799.515 78.1877 797.84 Q76.3198 796.165 73.1958 795.36 Q65.6918 793.364 62.3424 792.591 Q58.9608 791.818 57.5115 791.818 Q56.1589 791.818 55.2249 792.172 Q54.291 792.526 53.8723 793.138 Q53.4214 793.718 53.2604 794.265 Q53.0993 794.781 53.0993 795.36 Q53.0993 796.326 53.4858 797.421 Q53.8723 798.484 54.774 799.773 Q55.6436 801.029 57.4471 802.22 Q59.2507 803.412 61.7305 804.217 Q62.4712 804.378 62.4712 805.086 Q62.439 805.859 61.7949 805.859 Q61.2474 805.859 60.1202 805.441 Q58.9608 804.99 57.5115 804.088 Q56.0623 803.154 54.774 801.963 Q53.4536 800.739 52.5518 798.967 Q51.6501 797.164 51.6501 795.231 Q51.6501 794.362 51.8433 793.525 Q52.0043 792.655 52.4874 791.624 Q52.9705 790.562 54.0333 789.628 Q55.0961 788.694 56.642 788.114 Q55.9013 787.728 55.1927 787.212 Q54.4842 786.665 53.6146 785.827 Q52.7129 784.958 52.1976 783.766 Q51.6501 782.542 51.6501 781.19 Q51.6501 779.869 52.0043 778.581 Q52.3264 777.293 53.3892 776.198 Q54.4198 775.071 55.9979 775.071 Z" fill="#f8f8f2" fill-rule="nonzero" fill-opacity="1"></path><path clip-path="url(#clip510)" d="M79.7336 769.633 Q78.6708 770.567 77.2859 770.567 Q75.9011 770.567 74.8705 769.666 Q73.8077 768.732 73.8077 767.057 Q73.8077 765.092 75.7079 763.965 Q77.5758 762.838 80.732 762.838 Q84.1458 762.838 87.302 764.223 Q90.4903 765.608 92.004 766.96 Q93.5177 768.313 93.5177 768.861 Q93.5177 769.505 92.8092 769.505 Q92.5515 769.505 92.0684 769.054 Q86.9799 764.32 80.732 764.287 Q79.7336 764.287 79.7336 764.416 L79.8624 764.577 Q80.7964 765.704 80.7964 767.057 Q80.7964 768.7 79.7336 769.633 Z" fill="#f8f8f2" fill-rule="nonzero" fill-opacity="1"></path><path clip-path="url(#clip510)" d="M53.0993 721.765 Q54.0011 721.765 54.2265 722.184 Q54.4198 722.602 54.4198 723.762 L54.4198 729.945 L73.8721 734.84 Q75.579 735.227 77.0283 735.227 Q78.6386 735.227 79.3471 734.744 Q80.0556 734.229 80.0556 733.166 Q80.0556 731.072 78.1555 728.818 Q76.2554 726.531 71.6177 724.599 Q71.0058 724.341 70.877 724.213 Q70.7159 724.052 70.7159 723.633 Q70.7159 722.828 71.3601 722.828 Q71.5855 722.828 72.6161 723.279 Q73.6467 723.697 75.1604 724.631 Q76.674 725.533 78.0911 726.725 Q79.5081 727.884 80.5387 729.655 Q81.5371 731.427 81.5371 733.327 Q81.5371 736 79.8302 737.707 Q78.1233 739.381 75.4502 739.381 Q74.5807 739.381 71.8109 738.705 Q69.009 738.029 54.4198 734.357 L54.4198 740.187 Q54.4198 740.992 54.3876 741.314 Q54.3554 741.604 54.1943 741.829 Q54.0011 742.022 53.6146 742.022 Q53.0027 742.022 52.7451 741.765 Q52.4552 741.507 52.423 741.185 Q52.3586 740.831 52.3586 740.026 L52.3586 733.842 L41.8917 731.266 Q40.8611 731.008 40.2814 730.364 Q39.6695 729.688 39.6051 729.301 Q39.5085 728.915 39.5085 728.625 Q39.5085 727.755 39.9916 727.24 Q40.4424 726.725 41.2798 726.725 Q41.7307 726.725 52.3586 729.43 L52.3586 723.633 Q52.3586 722.892 52.3908 722.602 Q52.423 722.28 52.584 722.023 Q52.7451 721.765 53.0993 721.765 Z" fill="#f8f8f2" fill-rule="nonzero" fill-opacity="1"></path><path clip-path="url(#clip510)" d="M96.6417 716.601 Q96.3196 716.601 95.5145 715.764 Q84.6933 705.136 64.307 705.136 Q43.8563 705.136 33.5182 715.345 Q32.3266 716.601 31.9723 716.601 Q31.3282 716.601 31.3282 715.957 Q31.3282 715.506 32.6486 713.928 Q33.9691 712.318 36.9964 709.903 Q40.0238 707.455 43.7274 705.651 Q52.7129 701.304 64.307 701.304 Q75.4502 701.304 84.4356 705.458 Q88.2037 707.229 91.3599 709.709 Q94.5161 712.189 95.9009 713.832 Q97.2858 715.474 97.2858 715.957 Q97.2858 716.601 96.6417 716.601 Z" fill="#f8f8f2" fill-rule="nonzero" fill-opacity="1"></path><path clip-path="url(#clip510)" d="M95.2568 691.274 L33.8402 691.274 Q31.3926 691.274 31.3926 689.954 Q31.3926 688.633 33.3571 688.633 L94.7737 688.633 Q97.2214 688.633 97.2214 689.954 Q97.2214 691.274 95.2568 691.274 Z" fill="#f8f8f2" fill-rule="nonzero" fill-opacity="1"></path><path clip-path="url(#clip510)" d="M40.9972 681.625 Q40.163 681.625 39.915 681.557 Q39.6671 681.467 39.2838 681.106 L29.4095 672.246 Q23.9538 667.399 19.197 667.399 Q16.1085 667.399 13.8992 669.022 Q11.6898 670.623 11.6898 673.576 Q11.6898 675.605 12.9298 677.319 Q14.1697 679.032 16.379 679.821 Q16.3339 679.686 16.3339 679.212 Q16.3339 678.063 17.0553 677.431 Q17.7767 676.778 18.7461 676.778 Q19.9861 676.778 20.5947 677.589 Q21.1809 678.378 21.1809 679.167 Q21.1809 679.483 21.1133 679.911 Q21.0456 680.317 20.4144 680.971 Q19.7606 681.625 18.6109 681.625 Q15.3871 681.625 12.817 679.19 Q10.247 676.733 10.247 672.99 Q10.247 668.752 12.7719 665.979 Q15.2743 663.184 19.197 663.184 Q20.5722 663.184 21.8347 663.612 Q23.0746 664.018 24.044 664.581 Q25.0134 665.122 26.5689 666.61 Q28.1245 668.098 29.2291 669.293 Q30.3338 670.488 32.6784 673.171 L37.4352 678.063 L37.4352 669.744 Q37.4352 665.686 37.0745 665.37 Q36.4207 664.919 32.9715 664.356 L32.9715 663.184 L40.9972 664.491 L40.9972 681.625 Z" fill="#f8f8f2" fill-rule="nonzero" fill-opacity="1"></path><path clip-path="url(#clip510)" d="M703.526 12.096 L711.709 12.096 L711.709 72.576 L703.526 72.576 L703.526 12.096 Z" fill="#f8f8f2" fill-rule="nonzero" fill-opacity="1"></path><path clip-path="url(#clip510)" d="M765.384 45.1919 L765.384 72.576 L757.93 72.576 L757.93 45.4349 Q757.93 38.994 755.418 35.7938 Q752.907 32.5936 747.884 32.5936 Q741.848 32.5936 738.364 36.4419 Q734.88 40.2903 734.88 46.9338 L734.88 72.576 L727.386 72.576 L727.386 27.2059 L734.88 27.2059 L734.88 34.2544 Q737.554 30.163 741.159 28.1376 Q744.805 26.1121 749.545 26.1121 Q757.363 26.1121 761.373 30.9732 Q765.384 35.7938 765.384 45.1919 Z" fill="#f8f8f2" fill-rule="nonzero" fill-opacity="1"></path><path clip-path="url(#clip510)" d="M780.25 27.2059 L787.704 27.2059 L787.704 72.576 L780.25 72.576 L780.25 27.2059 M780.25 9.54393 L787.704 9.54393 L787.704 18.9825 L780.25 18.9825 L780.25 9.54393 Z" fill="#f8f8f2" fill-rule="nonzero" fill-opacity="1"></path><path clip-path="url(#clip510)" d="M810.673 14.324 L810.673 27.2059 L826.026 27.2059 L826.026 32.9987 L810.673 32.9987 L810.673 57.6282 Q810.673 63.1779 812.172 64.7578 Q813.711 66.3376 818.37 66.3376 L826.026 66.3376 L826.026 72.576 L818.37 72.576 Q809.741 72.576 806.46 69.3758 Q803.179 66.1351 803.179 57.6282 L803.179 32.9987 L797.71 32.9987 L797.71 27.2059 L803.179 27.2059 L803.179 14.324 L810.673 14.324 Z" fill="#f8f8f2" fill-rule="nonzero" fill-opacity="1"></path><path clip-path="url(#clip510)" d="M835.829 27.2059 L843.283 27.2059 L843.283 72.576 L835.829 72.576 L835.829 27.2059 M835.829 9.54393 L843.283 9.54393 L843.283 18.9825 L835.829 18.9825 L835.829 9.54393 Z" fill="#f8f8f2" fill-rule="nonzero" fill-opacity="1"></path><path clip-path="url(#clip510)" d="M879.498 49.7694 Q870.464 49.7694 866.98 51.8354 Q863.497 53.9013 863.497 58.8839 Q863.497 62.8538 866.089 65.2034 Q868.722 67.5124 873.219 67.5124 Q879.417 67.5124 883.143 63.1374 Q886.911 58.7219 886.911 51.4303 L886.911 49.7694 L879.498 49.7694 M894.364 46.6907 L894.364 72.576 L886.911 72.576 L886.911 65.6895 Q884.359 69.8214 880.551 71.8063 Q876.743 73.7508 871.234 73.7508 Q864.266 73.7508 860.134 69.8619 Q856.043 65.9325 856.043 59.3701 Q856.043 51.7138 861.147 47.825 Q866.292 43.9361 876.459 43.9361 L886.911 43.9361 L886.911 43.2069 Q886.911 38.0623 883.508 35.2672 Q880.146 32.4315 874.029 32.4315 Q870.14 32.4315 866.454 33.3632 Q862.767 34.295 859.365 36.1584 L859.365 29.2718 Q863.456 27.692 867.304 26.9223 Q871.153 26.1121 874.799 26.1121 Q884.642 26.1121 889.503 31.2163 Q894.364 36.3204 894.364 46.6907 Z" fill="#f8f8f2" fill-rule="nonzero" fill-opacity="1"></path><path clip-path="url(#clip510)" d="M909.717 9.54393 L917.171 9.54393 L917.171 72.576 L909.717 72.576 L909.717 9.54393 Z" fill="#f8f8f2" fill-rule="nonzero" fill-opacity="1"></path><path clip-path="url(#clip510)" d="M1000.7 63.9476 L1000.7 47.7034 L987.333 47.7034 L987.333 40.9789 L1008.8 40.9789 L1008.8 66.9452 Q1004.06 70.3075 998.351 72.0494 Q992.639 73.7508 986.158 73.7508 Q971.98 73.7508 963.959 65.4869 Q955.979 57.1826 955.979 42.3968 Q955.979 27.5705 963.959 19.3066 Q971.98 11.0023 986.158 11.0023 Q992.072 11.0023 997.379 12.4606 Q1002.73 13.9189 1007.22 16.7545 L1007.22 25.464 Q1002.69 21.6156 997.582 19.6712 Q992.477 17.7268 986.847 17.7268 Q975.747 17.7268 970.157 23.9246 Q964.607 30.1225 964.607 42.3968 Q964.607 54.6305 970.157 60.8284 Q975.747 67.0263 986.847 67.0263 Q991.181 67.0263 994.584 66.2971 Q997.987 65.5274 1000.7 63.9476 Z" fill="#f8f8f2" fill-rule="nonzero" fill-opacity="1"></path><path clip-path="url(#clip510)" d="M1044.05 49.7694 Q1035.01 49.7694 1031.53 51.8354 Q1028.04 53.9013 1028.04 58.8839 Q1028.04 62.8538 1030.64 65.2034 Q1033.27 67.5124 1037.77 67.5124 Q1043.96 67.5124 1047.69 63.1374 Q1051.46 58.7219 1051.46 51.4303 L1051.46 49.7694 L1044.05 49.7694 M1058.91 46.6907 L1058.91 72.576 L1051.46 72.576 L1051.46 65.6895 Q1048.91 69.8214 1045.1 71.8063 Q1041.29 73.7508 1035.78 73.7508 Q1028.81 73.7508 1024.68 69.8619 Q1020.59 65.9325 1020.59 59.3701 Q1020.59 51.7138 1025.69 47.825 Q1030.84 43.9361 1041.01 43.9361 L1051.46 43.9361 L1051.46 43.2069 Q1051.46 38.0623 1048.06 35.2672 Q1044.69 32.4315 1038.58 32.4315 Q1034.69 32.4315 1031 33.3632 Q1027.32 34.295 1023.91 36.1584 L1023.91 29.2718 Q1028 27.692 1031.85 26.9223 Q1035.7 26.1121 1039.35 26.1121 Q1049.19 26.1121 1054.05 31.2163 Q1058.91 36.3204 1058.91 46.6907 Z" fill="#f8f8f2" fill-rule="nonzero" fill-opacity="1"></path><path clip-path="url(#clip510)" d="M1073.5 54.671 L1073.5 27.2059 L1080.95 27.2059 L1080.95 54.3874 Q1080.95 60.8284 1083.46 64.0691 Q1085.97 67.2693 1091 67.2693 Q1097.03 67.2693 1100.51 63.421 Q1104.04 59.5726 1104.04 52.9291 L1104.04 27.2059 L1111.49 27.2059 L1111.49 72.576 L1104.04 72.576 L1104.04 65.6084 Q1101.33 69.7404 1097.72 71.7658 Q1094.16 73.7508 1089.42 73.7508 Q1081.6 73.7508 1077.55 68.8897 Q1073.5 64.0286 1073.5 54.671 M1092.25 26.1121 L1092.25 26.1121 Z" fill="#f8f8f2" fill-rule="nonzero" fill-opacity="1"></path><path clip-path="url(#clip510)" d="M1155.77 28.5427 L1155.77 35.5912 Q1152.61 33.9709 1149.21 33.1607 Q1145.8 32.3505 1142.16 32.3505 Q1136.61 32.3505 1133.81 34.0519 Q1131.06 35.7533 1131.06 39.156 Q1131.06 41.7486 1133.04 43.2475 Q1135.03 44.7058 1141.02 46.0426 L1143.58 46.6097 Q1151.52 48.3111 1154.84 51.4303 Q1158.2 54.509 1158.2 60.0587 Q1158.2 66.3781 1153.18 70.0644 Q1148.19 73.7508 1139.44 73.7508 Q1135.8 73.7508 1131.83 73.0216 Q1127.9 72.3329 1123.52 70.9151 L1123.52 63.2184 Q1127.66 65.3654 1131.67 66.4591 Q1135.68 67.5124 1139.61 67.5124 Q1144.87 67.5124 1147.71 65.73 Q1150.54 63.9071 1150.54 60.6258 Q1150.54 57.5877 1148.48 55.9673 Q1146.45 54.3469 1139.53 52.8481 L1136.93 52.2405 Q1130.01 50.7821 1126.93 47.7845 Q1123.85 44.7463 1123.85 39.4801 Q1123.85 33.0797 1128.39 29.5959 Q1132.92 26.1121 1141.27 26.1121 Q1145.4 26.1121 1149.04 26.7198 Q1152.69 27.3274 1155.77 28.5427 Z" fill="#f8f8f2" fill-rule="nonzero" fill-opacity="1"></path><path clip-path="url(#clip510)" d="M1198.99 28.5427 L1198.99 35.5912 Q1195.83 33.9709 1192.43 33.1607 Q1189.03 32.3505 1185.38 32.3505 Q1179.83 32.3505 1177.04 34.0519 Q1174.28 35.7533 1174.28 39.156 Q1174.28 41.7486 1176.27 43.2475 Q1178.25 44.7058 1184.25 46.0426 L1186.8 46.6097 Q1194.74 48.3111 1198.06 51.4303 Q1201.42 54.509 1201.42 60.0587 Q1201.42 66.3781 1196.4 70.0644 Q1191.42 73.7508 1182.67 73.7508 Q1179.02 73.7508 1175.05 73.0216 Q1171.12 72.3329 1166.75 70.9151 L1166.75 63.2184 Q1170.88 65.3654 1174.89 66.4591 Q1178.9 67.5124 1182.83 67.5124 Q1188.1 67.5124 1190.93 65.73 Q1193.77 63.9071 1193.77 60.6258 Q1193.77 57.5877 1191.7 55.9673 Q1189.68 54.3469 1182.75 52.8481 L1180.16 52.2405 Q1173.23 50.7821 1170.15 47.7845 Q1167.07 44.7463 1167.07 39.4801 Q1167.07 33.0797 1171.61 29.5959 Q1176.15 26.1121 1184.49 26.1121 Q1188.62 26.1121 1192.27 26.7198 Q1195.91 27.3274 1198.99 28.5427 Z" fill="#f8f8f2" fill-rule="nonzero" fill-opacity="1"></path><path clip-path="url(#clip510)" d="M1213.29 27.2059 L1220.75 27.2059 L1220.75 72.576 L1213.29 72.576 L1213.29 27.2059 M1213.29 9.54393 L1220.75 9.54393 L1220.75 18.9825 L1213.29 18.9825 L1213.29 9.54393 Z" fill="#f8f8f2" fill-rule="nonzero" fill-opacity="1"></path><path clip-path="url(#clip510)" d="M1256.96 49.7694 Q1247.93 49.7694 1244.44 51.8354 Q1240.96 53.9013 1240.96 58.8839 Q1240.96 62.8538 1243.55 65.2034 Q1246.19 67.5124 1250.68 67.5124 Q1256.88 67.5124 1260.61 63.1374 Q1264.37 58.7219 1264.37 51.4303 L1264.37 49.7694 L1256.96 49.7694 M1271.83 46.6907 L1271.83 72.576 L1264.37 72.576 L1264.37 65.6895 Q1261.82 69.8214 1258.01 71.8063 Q1254.21 73.7508 1248.7 73.7508 Q1241.73 73.7508 1237.6 69.8619 Q1233.51 65.9325 1233.51 59.3701 Q1233.51 51.7138 1238.61 47.825 Q1243.75 43.9361 1253.92 43.9361 L1264.37 43.9361 L1264.37 43.2069 Q1264.37 38.0623 1260.97 35.2672 Q1257.61 32.4315 1251.49 32.4315 Q1247.6 32.4315 1243.92 33.3632 Q1240.23 34.295 1236.83 36.1584 L1236.83 29.2718 Q1240.92 27.692 1244.77 26.9223 Q1248.62 26.1121 1252.26 26.1121 Q1262.11 26.1121 1266.97 31.2163 Q1271.83 36.3204 1271.83 46.6907 Z" fill="#f8f8f2" fill-rule="nonzero" fill-opacity="1"></path><path clip-path="url(#clip510)" d="M1324.89 45.1919 L1324.89 72.576 L1317.44 72.576 L1317.44 45.4349 Q1317.44 38.994 1314.93 35.7938 Q1312.42 32.5936 1307.39 32.5936 Q1301.36 32.5936 1297.88 36.4419 Q1294.39 40.2903 1294.39 46.9338 L1294.39 72.576 L1286.9 72.576 L1286.9 27.2059 L1294.39 27.2059 L1294.39 34.2544 Q1297.06 30.163 1300.67 28.1376 Q1304.32 26.1121 1309.06 26.1121 Q1316.87 26.1121 1320.88 30.9732 Q1324.89 35.7938 1324.89 45.1919 Z" fill="#f8f8f2" fill-rule="nonzero" fill-opacity="1"></path><path clip-path="url(#clip510)" d="M1361.8 27.2059 L1369.25 27.2059 L1378.57 62.6108 L1387.85 27.2059 L1396.64 27.2059 L1405.95 62.6108 L1415.23 27.2059 L1422.68 27.2059 L1410.81 72.576 L1402.02 72.576 L1392.26 35.3887 L1382.46 72.576 L1373.67 72.576 L1361.8 27.2059 Z" fill="#f8f8f2" fill-rule="nonzero" fill-opacity="1"></path><path clip-path="url(#clip510)" d="M1454.6 49.7694 Q1445.57 49.7694 1442.09 51.8354 Q1438.6 53.9013 1438.6 58.8839 Q1438.6 62.8538 1441.2 65.2034 Q1443.83 67.5124 1448.33 67.5124 Q1454.52 67.5124 1458.25 63.1374 Q1462.02 58.7219 1462.02 51.4303 L1462.02 49.7694 L1454.6 49.7694 M1469.47 46.6907 L1469.47 72.576 L1462.02 72.576 L1462.02 65.6895 Q1459.47 69.8214 1455.66 71.8063 Q1451.85 73.7508 1446.34 73.7508 Q1439.37 73.7508 1435.24 69.8619 Q1431.15 65.9325 1431.15 59.3701 Q1431.15 51.7138 1436.25 47.825 Q1441.4 43.9361 1451.57 43.9361 L1462.02 43.9361 L1462.02 43.2069 Q1462.02 38.0623 1458.61 35.2672 Q1455.25 32.4315 1449.14 32.4315 Q1445.25 32.4315 1441.56 33.3632 Q1437.87 34.295 1434.47 36.1584 L1434.47 29.2718 Q1438.56 27.692 1442.41 26.9223 Q1446.26 26.1121 1449.91 26.1121 Q1459.75 26.1121 1464.61 31.2163 Q1469.47 36.3204 1469.47 46.6907 Z" fill="#f8f8f2" fill-rule="nonzero" fill-opacity="1"></path><path clip-path="url(#clip510)" d="M1479.48 27.2059 L1487.38 27.2059 L1501.55 65.2844 L1515.73 27.2059 L1523.63 27.2059 L1506.62 72.576 L1496.49 72.576 L1479.48 27.2059 Z" fill="#f8f8f2" fill-rule="nonzero" fill-opacity="1"></path><path clip-path="url(#clip510)" d="M1572.73 48.0275 L1572.73 51.6733 L1538.46 51.6733 Q1538.94 59.3701 1543.08 63.421 Q1547.25 67.4314 1554.66 67.4314 Q1558.96 67.4314 1562.97 66.3781 Q1567.02 65.3249 1570.99 63.2184 L1570.99 70.267 Q1566.98 71.9684 1562.76 72.8596 Q1558.55 73.7508 1554.22 73.7508 Q1543.36 73.7508 1537 67.4314 Q1530.68 61.1119 1530.68 50.3365 Q1530.68 39.1965 1536.68 32.6746 Q1542.71 26.1121 1552.92 26.1121 Q1562.08 26.1121 1567.38 32.0264 Q1572.73 37.9003 1572.73 48.0275 M1565.28 45.84 Q1565.19 39.7232 1561.83 36.0774 Q1558.51 32.4315 1553 32.4315 Q1546.76 32.4315 1543 35.9558 Q1539.27 39.4801 1538.7 45.8805 L1565.28 45.84 Z" fill="#f8f8f2" fill-rule="nonzero" fill-opacity="1"></path><path clip-path="url(#clip510)" d="M1618.54 65.7705 L1618.54 89.8329 L1611.05 89.8329 L1611.05 27.2059 L1618.54 27.2059 L1618.54 34.0924 Q1620.89 30.0415 1624.46 28.0971 Q1628.06 26.1121 1633.05 26.1121 Q1641.31 26.1121 1646.46 32.6746 Q1651.64 39.2371 1651.64 49.9314 Q1651.64 60.6258 1646.46 67.1883 Q1641.31 73.7508 1633.05 73.7508 Q1628.06 73.7508 1624.46 71.8063 Q1620.89 69.8214 1618.54 65.7705 M1643.9 49.9314 Q1643.9 41.7081 1640.5 37.0496 Q1637.14 32.3505 1631.22 32.3505 Q1625.31 32.3505 1621.91 37.0496 Q1618.54 41.7081 1618.54 49.9314 Q1618.54 58.1548 1621.91 62.8538 Q1625.31 67.5124 1631.22 67.5124 Q1637.14 67.5124 1640.5 62.8538 Q1643.9 58.1548 1643.9 49.9314 Z" fill="#f8f8f2" fill-rule="nonzero" fill-opacity="1"></path><path clip-path="url(#clip510)" d="M1684.61 49.7694 Q1675.58 49.7694 1672.1 51.8354 Q1668.61 53.9013 1668.61 58.8839 Q1668.61 62.8538 1671.21 65.2034 Q1673.84 67.5124 1678.34 67.5124 Q1684.53 67.5124 1688.26 63.1374 Q1692.03 58.7219 1692.03 51.4303 L1692.03 49.7694 L1684.61 49.7694 M1699.48 46.6907 L1699.48 72.576 L1692.03 72.576 L1692.03 65.6895 Q1689.48 69.8214 1685.67 71.8063 Q1681.86 73.7508 1676.35 73.7508 Q1669.38 73.7508 1665.25 69.8619 Q1661.16 65.9325 1661.16 59.3701 Q1661.16 51.7138 1666.26 47.825 Q1671.41 43.9361 1681.58 43.9361 L1692.03 43.9361 L1692.03 43.2069 Q1692.03 38.0623 1688.63 35.2672 Q1685.26 32.4315 1679.15 32.4315 Q1675.26 32.4315 1671.57 33.3632 Q1667.88 34.295 1664.48 36.1584 L1664.48 29.2718 Q1668.57 27.692 1672.42 26.9223 Q1676.27 26.1121 1679.92 26.1121 Q1689.76 26.1121 1694.62 31.2163 Q1699.48 36.3204 1699.48 46.6907 Z" fill="#f8f8f2" fill-rule="nonzero" fill-opacity="1"></path><path clip-path="url(#clip510)" d="M1747.48 28.9478 L1747.48 35.9153 Q1744.33 34.1734 1741.12 33.3227 Q1737.97 32.4315 1734.72 32.4315 Q1727.47 32.4315 1723.46 37.0496 Q1719.45 41.6271 1719.45 49.9314 Q1719.45 58.2358 1723.46 62.8538 Q1727.47 67.4314 1734.72 67.4314 Q1737.97 67.4314 1741.12 66.5807 Q1744.33 65.6895 1747.48 63.9476 L1747.48 70.8341 Q1744.37 72.2924 1741 73.0216 Q1737.68 73.7508 1733.91 73.7508 Q1723.67 73.7508 1717.63 67.3098 Q1711.59 60.8689 1711.59 49.9314 Q1711.59 38.832 1717.67 32.472 Q1723.79 26.1121 1734.4 26.1121 Q1737.84 26.1121 1741.12 26.8413 Q1744.41 27.5299 1747.48 28.9478 Z" fill="#f8f8f2" fill-rule="nonzero" fill-opacity="1"></path><path clip-path="url(#clip510)" d="M1760.16 9.54393 L1767.66 9.54393 L1767.66 46.7717 L1789.9 27.2059 L1799.42 27.2059 L1775.36 48.4326 L1800.43 72.576 L1790.71 72.576 L1767.66 50.4176 L1767.66 72.576 L1760.16 72.576 L1760.16 9.54393 Z" fill="#f8f8f2" fill-rule="nonzero" fill-opacity="1"></path><path clip-path="url(#clip510)" d="M1844.34 48.0275 L1844.34 51.6733 L1810.07 51.6733 Q1810.56 59.3701 1814.69 63.421 Q1818.86 67.4314 1826.27 67.4314 Q1830.57 67.4314 1834.58 66.3781 Q1838.63 65.3249 1842.6 63.2184 L1842.6 70.267 Q1838.59 71.9684 1834.38 72.8596 Q1830.16 73.7508 1825.83 73.7508 Q1814.97 73.7508 1808.61 67.4314 Q1802.29 61.1119 1802.29 50.3365 Q1802.29 39.1965 1808.29 32.6746 Q1814.32 26.1121 1824.53 26.1121 Q1833.69 26.1121 1838.99 32.0264 Q1844.34 37.9003 1844.34 48.0275 M1836.89 45.84 Q1836.81 39.7232 1833.45 36.0774 Q1830.12 32.4315 1824.61 32.4315 Q1818.38 32.4315 1814.61 35.9558 Q1810.88 39.4801 1810.31 45.8805 L1836.89 45.84 Z" fill="#f8f8f2" fill-rule="nonzero" fill-opacity="1"></path><path clip-path="url(#clip510)" d="M1863.95 14.324 L1863.95 27.2059 L1879.3 27.2059 L1879.3 32.9987 L1863.95 32.9987 L1863.95 57.6282 Q1863.95 63.1779 1865.45 64.7578 Q1866.99 66.3376 1871.65 66.3376 L1879.3 66.3376 L1879.3 72.576 L1871.65 72.576 Q1863.02 72.576 1859.74 69.3758 Q1856.45 66.1351 1856.45 57.6282 L1856.45 32.9987 L1850.99 32.9987 L1850.99 27.2059 L1856.45 27.2059 L1856.45 14.324 L1863.95 14.324 Z" fill="#f8f8f2" fill-rule="nonzero" fill-opacity="1"></path><polyline clip-path="url(#clip512)" style="stroke:#8be9fd; stroke-linecap:round; stroke-linejoin:round; stroke-width:4; stroke-opacity:1; fill:none" points="290.148,1422.79 318.755,1422.32 347.363,1421.38 375.971,1419.55 404.578,1416.16 433.186,1410.13 461.793,1399.86 490.401,1383.17 519.009,1357.22 547.616,1318.69 576.224,1264.15 604.831,1190.63 633.439,1096.46 662.047,982.154 690.654,851.2 719.262,710.449 747.869,569.887 776.477,441.659 805.085,338.431 833.692,271.354 862.3,248.086 890.907,271.354 919.515,338.431 948.123,441.659 976.73,569.887 1005.34,710.449 1033.95,851.2 1062.55,982.154 1091.16,1096.46 1119.77,1190.63 1148.38,1264.15 1176.98,1318.69 1205.59,1357.22 1234.2,1383.17 1262.81,1399.86 1291.41,1410.13 1320.02,1416.16 1348.63,1419.55 1377.24,1421.38 1405.84,1422.32 1434.45,1422.79 1463.06,1423.01 1491.67,1423.11 1520.27,1423.15 1548.88,1423.17 1577.49,1423.18 1606.1,1423.18 1634.71,1423.18 1663.31,1423.18 1691.92,1423.18 1720.53,1423.18 1749.14,1423.18 1777.74,1423.18 1806.35,1423.18 1834.96,1423.18 1863.57,1423.18 1892.17,1423.18 1920.78,1423.18 1949.39,1423.18 1978,1423.18 2006.6,1423.18 2035.21,1423.18 2063.82,1423.18 2092.43,1423.18 2121.03,1423.18 2149.64,1423.18 2178.25,1423.18 2206.86,1423.18 2235.46,1423.18 2264.07,1423.18 2292.68,1423.18 "></polyline>
<path clip-path="url(#clip510)" d="M2017.3 270.476 L2282 270.476 L2282 166.796 L2017.3 166.796  Z" fill="#282a36" fill-rule="evenodd" fill-opacity="1"></path>
<polyline clip-path="url(#clip510)" style="stroke:#f8f8f2; stroke-linecap:round; stroke-linejoin:round; stroke-width:4; stroke-opacity:1; fill:none" points="2017.3,270.476 2282,270.476 2282,166.796 2017.3,166.796 2017.3,270.476 "></polyline>
<polyline clip-path="url(#clip510)" style="stroke:#8be9fd; stroke-linecap:round; stroke-linejoin:round; stroke-width:4; stroke-opacity:1; fill:none" points="2040.89,218.636 2182.4,218.636 "></polyline>
<path clip-path="url(#clip510)" d="M2219.83 238.323 Q2218.02 242.953 2216.31 244.365 Q2214.6 245.777 2211.72 245.777 L2208.32 245.777 L2208.32 242.212 L2210.82 242.212 Q2212.58 242.212 2213.55 241.379 Q2214.53 240.545 2215.71 237.443 L2216.47 235.499 L2205.98 209.99 L2210.5 209.99 L2218.6 230.268 L2226.7 209.99 L2231.22 209.99 L2219.83 238.323 Z" fill="#f8f8f2" fill-rule="nonzero" fill-opacity="1"></path><path clip-path="url(#clip510)" d="M2238.51 231.981 L2246.15 231.981 L2246.15 205.615 L2237.84 207.282 L2237.84 203.022 L2246.1 201.356 L2250.78 201.356 L2250.78 231.981 L2258.41 231.981 L2258.41 235.916 L2238.51 235.916 L2238.51 231.981 Z" fill="#f8f8f2" fill-rule="nonzero" fill-opacity="1"></path></svg>